<svg viewBox="0 0 512 512" xmlns="http://www.w3.org/2000/svg">
  <circle cx="256" cy="256" r="256" fill="#000"/>
  <g fill="#fff">
    <path d="M256 32c-30.9 0-60.9 6.3-89.1 18.6-27.1 11.8-51.4 28.8-72.2 50.4s-37.4 47.3-49.2 76.4C33.3 206.6 27 238.8 27 271.5c0 32.7 6.3 64.9 18.5 94.1 11.8 28.1 28.8 53.4 50.4 75.2s46.3 39.1 74.4 51.5c29.2 12.9 60.4 19.7 92.7 20.2V403.7c-81.8-1.9-147.8-68.9-147.8-151.2 0-83.5 67.7-151.2 151.2-151.2s151.2 67.7 151.2 151.2c0 30.9-9.3 59.6-25.2 83.5l86.8 51.9c26.5-39.5 41.9-87.1 41.9-138.4C521 132.4 397 32 256 32z"/>
    <ellipse cx="391.5" cy="194.8" rx="27.4" ry="27.8"/>
    <path d="M249.6 409.9l-4.8-85.7c-.5-8.4-7.4-14.9-15.8-14.9h-.9c-8.8.5-15.5 8-15 16.8l5.3 94.6c.5 8.4 7.4 14.9 15.8 14.9h.9c8.8-.5 15.5-8 15-16.8l-.5-8.9z"/>
  </g>
</svg>
